<svg width="200" height="200" viewBox="0 0 200 200" fill="none" xmlns="http://www.w3.org/2000/svg">
<rect width="200" height="200" fill="#D9D9D9" fill-opacity="0.5"/>
<path d="M134.286 105.714H105.714V134.286C105.714 135.801 105.112 137.255 104.041 138.326C102.969 139.398 101.516 140 100 140C98.4845 140 97.031 139.398 95.9594 138.326C94.8878 137.255 94.2857 135.801 94.2857 134.286V105.714H65.7143C64.1988 105.714 62.7453 105.112 61.6737 104.041C60.602 102.969 60 101.516 60 100C60 98.4845 60.602 97.031 61.6737 95.9594C62.7453 94.8878 64.1988 94.2857 65.7143 94.2857H94.2857V65.7143C94.2857 64.1988 94.8878 62.7453 95.9594 61.6737C97.031 60.602 98.4845 60 100 60C101.516 60 102.969 60.602 104.041 61.6737C105.112 62.7453 105.714 64.1988 105.714 65.7143V94.2857H134.286C135.801 94.2857 137.255 94.8878 138.326 95.9594C139.398 97.031 140 98.4845 140 100C140 101.516 139.398 102.969 138.326 104.041C137.255 105.112 135.801 105.714 134.286 105.714Z" fill="black" fill-opacity="0.5"/>
</svg>
