<svg width="238" height="38" viewBox="0 0 238 38" fill="none" xmlns="http://www.w3.org/2000/svg">
<path d="M88.608 7.688V31H85.792C85.376 31 85.024 30.936 84.736 30.808C84.4587 30.6693 84.1813 30.4347 83.904 30.104L72.912 16.2C72.9547 16.616 72.9813 17.0213 72.992 17.416C73.0133 17.8 73.024 18.1627 73.024 18.504V31H68.256V7.688H71.104C71.3387 7.688 71.536 7.69867 71.696 7.72C71.856 7.74133 72 7.784 72.128 7.848C72.256 7.90133 72.3787 7.98133 72.496 8.088C72.6133 8.19467 72.7467 8.33867 72.896 8.52L83.984 22.52C83.9307 22.072 83.8933 21.64 83.872 21.224C83.8507 20.7973 83.84 20.3973 83.84 20.024V7.688H88.608Z" fill="#728137"/>
<path d="M102.875 20.712C102.875 20.3173 102.822 19.9333 102.715 19.56C102.619 19.1867 102.454 18.856 102.219 18.568C101.995 18.2693 101.696 18.0293 101.323 17.848C100.95 17.6667 100.496 17.576 99.963 17.576C99.0243 17.576 98.2883 17.848 97.755 18.392C97.2217 18.9253 96.8697 19.6987 96.699 20.712H102.875ZM96.635 23.592C96.795 24.9787 97.2163 25.9867 97.899 26.616C98.5817 27.2347 99.4617 27.544 100.539 27.544C101.115 27.544 101.611 27.4747 102.027 27.336C102.443 27.1973 102.811 27.0427 103.131 26.872C103.462 26.7013 103.76 26.5467 104.027 26.408C104.304 26.2693 104.592 26.2 104.891 26.2C105.286 26.2 105.584 26.344 105.787 26.632L107.227 28.408C106.715 28.9947 106.16 29.4747 105.563 29.848C104.976 30.2107 104.368 30.4987 103.739 30.712C103.12 30.9147 102.496 31.0533 101.867 31.128C101.248 31.2133 100.656 31.256 100.091 31.256C98.9283 31.256 97.835 31.0693 96.811 30.696C95.7977 30.312 94.907 29.7467 94.139 29C93.3817 28.2533 92.779 27.3253 92.331 26.216C91.8937 25.1067 91.675 23.816 91.675 22.344C91.675 21.2347 91.8617 20.184 92.235 19.192C92.619 18.2 93.163 17.3307 93.867 16.584C94.5817 15.8373 95.4403 15.2453 96.443 14.808C97.4563 14.3707 98.5977 14.152 99.867 14.152C100.966 14.152 101.968 14.3227 102.875 14.664C103.792 15.0053 104.576 15.5013 105.227 16.152C105.888 16.8027 106.4 17.6027 106.763 18.552C107.136 19.4907 107.323 20.5573 107.323 21.752C107.323 22.1253 107.307 22.4293 107.275 22.664C107.243 22.8987 107.184 23.0853 107.099 23.224C107.014 23.3627 106.896 23.4587 106.747 23.512C106.608 23.5653 106.427 23.592 106.203 23.592H96.635ZM118.365 24.248C117.373 24.2907 116.557 24.376 115.917 24.504C115.277 24.632 114.77 24.792 114.397 24.984C114.024 25.176 113.762 25.3947 113.613 25.64C113.474 25.8853 113.405 26.152 113.405 26.44C113.405 27.0053 113.56 27.4053 113.869 27.64C114.178 27.864 114.632 27.976 115.229 27.976C115.869 27.976 116.429 27.864 116.909 27.64C117.389 27.416 117.874 27.0533 118.365 26.552V24.248ZM109.437 16.712C110.44 15.8267 111.549 15.1707 112.765 14.744C113.992 14.3067 115.304 14.088 116.701 14.088C117.704 14.088 118.605 14.2533 119.405 14.584C120.216 14.904 120.898 15.3573 121.453 15.944C122.018 16.52 122.45 17.208 122.749 18.008C123.048 18.808 123.197 19.6827 123.197 20.632V31H120.925C120.456 31 120.098 30.936 119.853 30.808C119.618 30.68 119.421 30.4133 119.261 30.008L118.909 29.096C118.493 29.448 118.093 29.7573 117.709 30.024C117.325 30.2907 116.925 30.52 116.509 30.712C116.104 30.8933 115.666 31.0267 115.197 31.112C114.738 31.208 114.226 31.256 113.661 31.256C112.904 31.256 112.216 31.16 111.597 30.968C110.978 30.7653 110.45 30.472 110.013 30.088C109.586 29.704 109.256 29.2293 109.021 28.664C108.786 28.088 108.669 27.4267 108.669 26.68C108.669 26.0827 108.818 25.48 109.117 24.872C109.416 24.2533 109.933 23.6933 110.669 23.192C111.405 22.68 112.397 22.2533 113.645 21.912C114.893 21.5707 116.466 21.3787 118.365 21.336V20.632C118.365 19.6613 118.162 18.9627 117.757 18.536C117.362 18.0987 116.797 17.88 116.061 17.88C115.474 17.88 114.994 17.944 114.621 18.072C114.248 18.2 113.912 18.344 113.613 18.504C113.325 18.664 113.042 18.808 112.765 18.936C112.488 19.064 112.157 19.128 111.773 19.128C111.432 19.128 111.144 19.0427 110.909 18.872C110.674 18.7013 110.482 18.4987 110.333 18.264L109.437 16.712ZM131.008 16.968C131.52 16.072 132.106 15.368 132.767 14.856C133.44 14.344 134.208 14.088 135.072 14.088C135.818 14.088 136.426 14.264 136.896 14.616L136.576 18.264C136.522 18.4987 136.432 18.6587 136.304 18.744C136.186 18.8293 136.021 18.872 135.808 18.872C135.722 18.872 135.61 18.8667 135.472 18.856C135.333 18.8453 135.189 18.8347 135.04 18.824C134.89 18.8027 134.736 18.7867 134.576 18.776C134.426 18.7547 134.288 18.744 134.16 18.744C133.434 18.744 132.853 18.936 132.416 19.32C131.989 19.704 131.626 20.2373 131.328 20.92V31H126.368V14.408H129.312C129.557 14.408 129.76 14.4293 129.92 14.472C130.09 14.5147 130.229 14.584 130.336 14.68C130.453 14.7653 130.538 14.8827 130.592 15.032C130.656 15.1813 130.709 15.3627 130.752 15.576L131.008 16.968ZM143.546 26.488C143.92 26.8933 144.325 27.1813 144.762 27.352C145.2 27.5227 145.642 27.608 146.09 27.608C146.56 27.608 146.992 27.5227 147.386 27.352C147.781 27.1707 148.117 26.8827 148.394 26.488C148.682 26.0827 148.906 25.5547 149.066 24.904C149.226 24.2427 149.306 23.432 149.306 22.472C149.306 21.64 149.242 20.936 149.114 20.36C148.997 19.7733 148.816 19.2987 148.57 18.936C148.336 18.5627 148.037 18.296 147.674 18.136C147.322 17.9653 146.917 17.88 146.458 17.88C145.85 17.88 145.322 18.0133 144.874 18.28C144.426 18.5467 143.984 18.936 143.546 19.448V26.488ZM143.546 16.168C144.186 15.56 144.885 15.0747 145.642 14.712C146.41 14.3387 147.264 14.152 148.202 14.152C149.141 14.152 149.994 14.344 150.762 14.728C151.53 15.112 152.186 15.6613 152.73 16.376C153.274 17.08 153.69 17.9333 153.978 18.936C154.277 19.9387 154.426 21.0587 154.426 22.296C154.426 23.64 154.256 24.8613 153.914 25.96C153.573 27.0587 153.088 28.0027 152.458 28.792C151.84 29.5707 151.098 30.1787 150.234 30.616C149.37 31.0427 148.416 31.256 147.37 31.256C146.869 31.256 146.421 31.208 146.026 31.112C145.632 31.016 145.269 30.8827 144.938 30.712C144.608 30.5307 144.304 30.3173 144.026 30.072C143.76 29.8267 143.498 29.56 143.242 29.272L143.066 30.104C142.981 30.4453 142.842 30.68 142.65 30.808C142.458 30.936 142.202 31 141.882 31H138.586V7.048H143.546V16.168ZM172.221 14.408L163.357 35.304C163.208 35.6347 163.027 35.8747 162.813 36.024C162.6 36.184 162.259 36.264 161.789 36.264H158.077L161.277 29.544L154.653 14.408H159.037C159.421 14.408 159.715 14.4933 159.917 14.664C160.131 14.8347 160.285 15.0373 160.381 15.272L163.101 22.424C163.357 23.0747 163.565 23.7413 163.725 24.424C163.843 24.0827 163.96 23.7413 164.077 23.4C164.195 23.0587 164.317 22.7227 164.445 22.392L166.909 15.272C167.005 15.0267 167.176 14.824 167.421 14.664C167.667 14.4933 167.933 14.408 168.221 14.408H172.221ZM203.209 24.248C202.217 24.2907 201.401 24.376 200.761 24.504C200.121 24.632 199.614 24.792 199.241 24.984C198.867 25.176 198.606 25.3947 198.457 25.64C198.318 25.8853 198.249 26.152 198.249 26.44C198.249 27.0053 198.403 27.4053 198.713 27.64C199.022 27.864 199.475 27.976 200.073 27.976C200.713 27.976 201.273 27.864 201.753 27.64C202.233 27.416 202.718 27.0533 203.209 26.552V24.248ZM194.281 16.712C195.283 15.8267 196.393 15.1707 197.609 14.744C198.835 14.3067 200.147 14.088 201.545 14.088C202.547 14.088 203.449 14.2533 204.249 14.584C205.059 14.904 205.742 15.3573 206.297 15.944C206.862 16.52 207.294 17.208 207.593 18.008C207.891 18.808 208.041 19.6827 208.041 20.632V31H205.769C205.299 31 204.942 30.936 204.697 30.808C204.462 30.68 204.265 30.4133 204.105 30.008L203.753 29.096C203.337 29.448 202.937 29.7573 202.553 30.024C202.169 30.2907 201.769 30.52 201.353 30.712C200.947 30.8933 200.51 31.0267 200.041 31.112C199.582 31.208 199.07 31.256 198.505 31.256C197.747 31.256 197.059 31.16 196.441 30.968C195.822 30.7653 195.294 30.472 194.857 30.088C194.43 29.704 194.099 29.2293 193.865 28.664C193.63 28.088 193.513 27.4267 193.513 26.68C193.513 26.0827 193.662 25.48 193.961 24.872C194.259 24.2533 194.777 23.6933 195.513 23.192C196.249 22.68 197.241 22.2533 198.489 21.912C199.737 21.5707 201.31 21.3787 203.209 21.336V20.632C203.209 19.6613 203.006 18.9627 202.601 18.536C202.206 18.0987 201.641 17.88 200.905 17.88C200.318 17.88 199.838 17.944 199.465 18.072C199.091 18.2 198.755 18.344 198.457 18.504C198.169 18.664 197.886 18.808 197.609 18.936C197.331 19.064 197.001 19.128 196.617 19.128C196.275 19.128 195.987 19.0427 195.753 18.872C195.518 18.7013 195.326 18.4987 195.177 18.264L194.281 16.712ZM212.1 31V17.816L211.012 17.592C210.638 17.5067 210.334 17.3733 210.1 17.192C209.876 17.0107 209.764 16.744 209.764 16.392V14.44H212.1V13.496C212.1 12.5467 212.249 11.688 212.548 10.92C212.857 10.152 213.294 9.496 213.86 8.952C214.436 8.408 215.134 7.98667 215.956 7.688C216.777 7.38933 217.71 7.24 218.756 7.24C219.161 7.24 219.534 7.26667 219.876 7.32C220.217 7.36267 220.574 7.43733 220.948 7.544L220.852 9.96C220.841 10.1307 220.798 10.2747 220.724 10.392C220.649 10.4987 220.548 10.5893 220.42 10.664C220.302 10.728 220.174 10.776 220.036 10.808C219.897 10.84 219.758 10.856 219.62 10.856C219.182 10.856 218.793 10.8987 218.452 10.984C218.11 11.0693 217.822 11.224 217.588 11.448C217.364 11.6613 217.193 11.9493 217.076 12.312C216.958 12.664 216.9 13.112 216.9 13.656V14.44H220.788V17.832H217.06V31H212.1ZM232.563 20.712C232.563 20.3173 232.509 19.9333 232.403 19.56C232.307 19.1867 232.141 18.856 231.907 18.568C231.683 18.2693 231.384 18.0293 231.011 17.848C230.637 17.6667 230.184 17.576 229.651 17.576C228.712 17.576 227.976 17.848 227.443 18.392C226.909 18.9253 226.557 19.6987 226.387 20.712H232.563ZM226.323 23.592C226.483 24.9787 226.904 25.9867 227.587 26.616C228.269 27.2347 229.149 27.544 230.227 27.544C230.803 27.544 231.299 27.4747 231.715 27.336C232.131 27.1973 232.499 27.0427 232.819 26.872C233.149 26.7013 233.448 26.5467 233.715 26.408C233.992 26.2693 234.28 26.2 234.579 26.2C234.973 26.2 235.272 26.344 235.475 26.632L236.915 28.408C236.403 28.9947 235.848 29.4747 235.251 29.848C234.664 30.2107 234.056 30.4987 233.427 30.712C232.808 30.9147 232.184 31.0533 231.555 31.128C230.936 31.2133 230.344 31.256 229.779 31.256C228.616 31.256 227.523 31.0693 226.499 30.696C225.485 30.312 224.595 29.7467 223.827 29C223.069 28.2533 222.467 27.3253 222.019 26.216C221.581 25.1067 221.363 23.816 221.363 22.344C221.363 21.2347 221.549 20.184 221.923 19.192C222.307 18.2 222.851 17.3307 223.555 16.584C224.269 15.8373 225.128 15.2453 226.131 14.808C227.144 14.3707 228.285 14.152 229.555 14.152C230.653 14.152 231.656 14.3227 232.563 14.664C233.48 15.0053 234.264 15.5013 234.915 16.152C235.576 16.8027 236.088 17.6027 236.451 18.552C236.824 19.4907 237.01 20.5573 237.01 21.752C237.01 22.1253 236.995 22.4293 236.963 22.664C236.931 22.8987 236.872 23.0853 236.787 23.224C236.701 23.3627 236.584 23.4587 236.435 23.512C236.296 23.5653 236.115 23.592 235.891 23.592H226.323ZM236.019 7.432L231.859 11.64C231.613 11.8853 231.379 12.0613 231.155 12.168C230.931 12.264 230.632 12.312 230.259 12.312H227.283L229.459 8.392C229.64 8.08267 229.853 7.848 230.099 7.688C230.344 7.51733 230.717 7.432 231.219 7.432H236.019Z" fill="#37312E"/>
<path d="M189.968 24.968C190.096 24.968 190.224 24.9947 190.352 25.048C190.48 25.0907 190.603 25.1707 190.72 25.288L192.864 27.544C191.925 28.7707 190.747 29.6987 189.328 30.328C187.92 30.9467 186.251 31.256 184.32 31.256C182.549 31.256 180.96 30.9573 179.552 30.36C178.155 29.752 176.965 28.92 175.984 27.864C175.013 26.7973 174.267 25.5387 173.744 24.088C173.221 22.6267 172.96 21.0427 172.96 19.336C172.96 17.5973 173.243 16.0027 173.808 14.552C174.373 13.0907 175.168 11.832 176.192 10.776C177.216 9.72 178.443 8.89867 179.872 8.312C181.301 7.72533 182.875 7.432 184.592 7.432C185.467 7.432 186.288 7.512 187.056 7.672C187.835 7.82133 188.56 8.03466 189.232 8.312C189.904 8.57867 190.523 8.904 191.088 9.288C191.653 9.672 192.155 10.088 192.592 10.536L190.768 12.984C190.651 13.1333 190.512 13.272 190.352 13.4C190.192 13.5173 189.968 13.576 189.68 13.576C189.488 13.576 189.307 13.5333 189.136 13.448C188.965 13.3627 188.784 13.2613 188.592 13.144C188.4 13.016 188.187 12.8827 187.952 12.744C187.728 12.5947 187.456 12.4613 187.136 12.344C186.827 12.216 186.459 12.1093 186.032 12.024C185.616 11.9387 185.125 11.896 184.56 11.896C183.664 11.896 182.843 12.0613 182.096 12.392C181.36 12.7227 180.72 13.208 180.176 13.848C179.643 14.4773 179.227 15.256 178.928 16.184C178.64 17.1013 178.496 18.152 178.496 19.336C178.496 20.5307 178.656 21.592 178.976 22.52C179.307 23.448 179.749 24.232 180.304 24.872C180.869 25.5013 181.525 25.9813 182.272 26.312C183.019 26.6427 183.819 26.808 184.672 26.808C185.163 26.808 185.611 26.7867 186.016 26.744C186.421 26.6907 186.8 26.6107 187.152 26.504C187.504 26.3867 187.835 26.2373 188.144 26.056C188.453 25.864 188.768 25.624 189.088 25.336C189.216 25.2293 189.355 25.144 189.504 25.08C189.653 25.0053 189.808 24.968 189.968 24.968Z" fill="#DF4629"/>
<path d="M33 3C53.8224 3.00002 54.8382 35 33 35" stroke="#DF4629" stroke-width="5" stroke-linecap="round" stroke-linejoin="round"/>
<path d="M3 35V3L32.5 35V3" stroke="#728137" stroke-width="5" stroke-linecap="round" stroke-linejoin="round"/>
<path d="M3 35H33.5" stroke="#DF4629" stroke-width="5" stroke-linecap="round" stroke-linejoin="round"/>
</svg>
